<svg width="20" height="20" viewBox="0 0 20 20" fill="none" xmlns="http://www.w3.org/2000/svg">
<path d="M17.4184 10.4451C17.4996 10.2324 17.5208 9.99833 17.4794 9.77255C17.438 9.54676 17.3359 9.33938 17.1859 9.17665L12.8999 4.52189C12.8011 4.41074 12.6829 4.32209 12.5521 4.2611C12.4214 4.20011 12.2808 4.16801 12.1385 4.16667C11.9963 4.16533 11.8552 4.19477 11.7235 4.25328C11.5918 4.31179 11.4722 4.3982 11.3716 4.50746C11.271 4.61672 11.1914 4.74665 11.1375 4.88967C11.0836 5.03268 11.0565 5.18591 11.0578 5.34043C11.059 5.49494 11.0886 5.64764 11.1447 5.78962C11.2009 5.93159 11.2825 6.06 11.3848 6.16735L13.8429 8.83685H3.5715C3.28732 8.83685 3.01478 8.95945 2.81383 9.17769C2.61289 9.39592 2.5 9.69191 2.5 10.0005C2.5 10.3092 2.61289 10.6052 2.81383 10.8234C3.01478 11.0416 3.28732 11.1642 3.5715 11.1642H13.8429L11.3859 13.8326C11.2836 13.9399 11.202 14.0683 11.1458 14.2103C11.0896 14.3523 11.0601 14.505 11.0588 14.6595C11.0576 14.814 11.0847 14.9672 11.1386 15.1103C11.1925 15.2533 11.272 15.3832 11.3726 15.4925C11.4732 15.6017 11.5929 15.6881 11.7246 15.7466C11.8562 15.8051 11.9973 15.8346 12.1396 15.8332C12.2819 15.8319 12.4225 15.7998 12.5532 15.7388C12.6839 15.6778 12.8022 15.5892 12.901 15.478L17.187 10.8233C17.2863 10.7149 17.3649 10.5864 17.4184 10.4451Z" fill="#FAFAFA"/>
</svg>
