<svg width="20" height="20" viewBox="0 0 20 20" fill="none" xmlns="http://www.w3.org/2000/svg">
<path d="M16.5457 11.0604L18.3001 5.22785C18.3373 5.10385 18.3437 4.97334 18.3188 4.8466C18.2938 4.71985 18.2383 4.60033 18.1565 4.49744C18.0747 4.39454 17.9689 4.31108 17.8474 4.25362C17.7259 4.19617 17.592 4.16628 17.4562 4.16631H5.85114L5.32922 2.28738C5.27983 2.10947 5.16983 1.95209 5.01639 1.8398C4.86294 1.72751 4.67469 1.66662 4.48099 1.66663H2.54417C2.31153 1.66663 2.08842 1.75441 1.92391 1.91067C1.75941 2.06693 1.66699 2.27887 1.66699 2.49985C1.66699 2.72084 1.75941 2.93278 1.92391 3.08904C2.08842 3.2453 2.31153 3.33308 2.54417 3.33308H3.80556L4.33187 5.21202V5.22035V5.22785L6.08623 11.0604L6.7406 13.5485C6.30739 13.7309 5.93409 14.0211 5.66011 14.3884C5.38614 14.7557 5.22165 15.1864 5.18402 15.6351C5.1464 16.0839 5.23703 16.5339 5.44635 16.9377C5.65567 17.3416 5.9759 17.6842 6.37324 17.9295C6.77059 18.1748 7.23029 18.3137 7.7038 18.3314C8.17732 18.3491 8.64708 18.245 9.06348 18.0301C9.47988 17.8152 9.82747 17.4975 10.0695 17.1105C10.3116 16.7235 10.4392 16.2817 10.4388 15.8315C10.4359 15.547 10.3813 15.2651 10.2774 14.9983H12.3546C12.2507 15.2651 12.1961 15.547 12.1932 15.8315C12.1932 16.3259 12.3475 16.8092 12.6367 17.2203C12.9258 17.6313 13.3368 17.9517 13.8177 18.1409C14.2985 18.3301 14.8276 18.3796 15.3381 18.2832C15.8486 18.1867 16.3175 17.9487 16.6855 17.5991C17.0535 17.2495 17.3041 16.8041 17.4057 16.3192C17.5072 15.8343 17.4551 15.3317 17.2559 14.8749C17.0568 14.4182 16.7195 14.0278 16.2867 13.7531C15.854 13.4784 15.3452 13.3318 14.8247 13.3318H8.49146L8.05287 11.6654H15.7019C15.8927 11.6654 16.0782 11.6064 16.2305 11.4972C16.3828 11.3881 16.4935 11.2347 16.5457 11.0604ZM14.8247 14.9983C14.9982 14.9983 15.1678 15.0472 15.312 15.1387C15.4563 15.2303 15.5687 15.3604 15.6351 15.5127C15.7015 15.6649 15.7189 15.8324 15.685 15.9941C15.6512 16.1557 15.5676 16.3042 15.445 16.4207C15.3223 16.5372 15.166 16.6166 14.9958 16.6487C14.8257 16.6809 14.6493 16.6644 14.489 16.6013C14.3287 16.5383 14.1917 16.4315 14.0954 16.2944C13.999 16.1574 13.9475 15.9963 13.9475 15.8315C13.9475 15.6105 14.0399 15.3986 14.2044 15.2423C14.3689 15.0861 14.5921 14.9983 14.8247 14.9983ZM8.68444 15.8315C8.68444 15.9963 8.63299 16.1574 8.5366 16.2944C8.44022 16.4315 8.30322 16.5383 8.14294 16.6013C7.98266 16.6644 7.80628 16.6809 7.63613 16.6487C7.46597 16.6166 7.30967 16.5372 7.187 16.4207C7.06432 16.3042 6.98078 16.1557 6.94693 15.9941C6.91308 15.8324 6.93046 15.6649 6.99685 15.5127C7.06324 15.3604 7.17567 15.2303 7.31992 15.1387C7.46417 15.0472 7.63377 14.9983 7.80726 14.9983C8.0399 14.9983 8.26301 15.0861 8.42752 15.2423C8.59202 15.3986 8.68444 15.6105 8.68444 15.8315ZM13.0703 8.33246H12.1932V9.16569C12.1932 9.38667 12.1007 9.59861 11.9362 9.75487C11.7717 9.91113 11.5486 9.99892 11.316 9.99892C11.0833 9.99892 10.8602 9.91113 10.6957 9.75487C10.5312 9.59861 10.4388 9.38667 10.4388 9.16569V8.33246H9.56162C9.32897 8.33246 9.10586 8.24467 8.94136 8.08841C8.77685 7.93215 8.68444 7.72021 8.68444 7.49923C8.68444 7.27824 8.77685 7.06631 8.94136 6.91005C9.10586 6.75379 9.32897 6.666 9.56162 6.666H10.4388V5.83277C10.4388 5.61178 10.5312 5.39985 10.6957 5.24359C10.8602 5.08733 11.0833 4.99954 11.316 4.99954C11.5486 4.99954 11.7717 5.08733 11.9362 5.24359C12.1007 5.39985 12.1932 5.61178 12.1932 5.83277V6.666H13.0703C13.303 6.666 13.5261 6.75379 13.6906 6.91005C13.8551 7.06631 13.9475 7.27824 13.9475 7.49923C13.9475 7.72021 13.8551 7.93215 13.6906 8.08841C13.5261 8.24467 13.303 8.33246 13.0703 8.33246Z" fill="#FAFAFA"/>
</svg>
