<svg width="20" height="20" viewBox="0 0 20 20" fill="none" xmlns="http://www.w3.org/2000/svg">
<path d="M7.7895 15.8334C7.57022 15.8333 7.35587 15.7649 7.17356 15.6369C6.99125 15.5089 6.84916 15.3269 6.76525 15.114C6.68134 14.9011 6.65938 14.6669 6.70215 14.4409C6.74492 14.2149 6.85049 14.0073 7.00552 13.8443L10.6571 10.0072L7.00552 6.17006C6.89961 6.06257 6.81513 5.93399 6.75702 5.79183C6.6989 5.64967 6.66831 5.49677 6.66703 5.34205C6.66575 5.18733 6.69381 5.03389 6.74957 4.89069C6.80532 4.74748 6.88766 4.61738 6.99178 4.50798C7.09589 4.39857 7.2197 4.31205 7.35598 4.25346C7.49225 4.19487 7.63827 4.16539 7.78551 4.16673C7.93274 4.16808 8.07825 4.20022 8.21354 4.26129C8.34883 4.32236 8.47119 4.41113 8.57348 4.52242L13.009 9.18336C13.2169 9.40187 13.3337 9.6982 13.3337 10.0072C13.3337 10.3162 13.2169 10.6125 13.009 10.831L8.57348 15.4919C8.36557 15.7105 8.08357 15.8333 7.7895 15.8334Z" fill="#FAFAFA"/>
</svg>
