<svg width="20" height="20" viewBox="0 0 20 20" fill="none" xmlns="http://www.w3.org/2000/svg">
<path d="M12.2112 15.8334C11.9171 15.8333 11.6351 15.7105 11.4272 15.4919L6.99166 10.831C6.78377 10.6125 6.66699 10.3162 6.66699 10.0072C6.66699 9.6982 6.78377 9.40187 6.99166 9.18336L11.4272 4.52242C11.5295 4.41113 11.6518 4.32236 11.7871 4.26129C11.9224 4.20022 12.0679 4.16808 12.2151 4.16673C12.3624 4.16539 12.5084 4.19487 12.6447 4.25346C12.781 4.31205 12.9048 4.39857 13.0089 4.50798C13.113 4.61738 13.1953 4.74748 13.2511 4.89069C13.3068 5.03389 13.3349 5.18733 13.3336 5.34205C13.3323 5.49677 13.3017 5.64967 13.2436 5.79183C13.1855 5.93399 13.101 6.06257 12.9951 6.17006L9.34359 10.0072L12.9951 13.8443C13.1502 14.0073 13.2557 14.2149 13.2985 14.4409C13.3413 14.6669 13.3193 14.9011 13.2354 15.114C13.1515 15.3269 13.0094 15.5089 12.8271 15.6369C12.6448 15.7649 12.4304 15.8333 12.2112 15.8334Z" fill="#FAFAFA"/>
</svg>
