<svg width="16" height="16" viewBox="0 0 16 16" fill="none" xmlns="http://www.w3.org/2000/svg">
<path d="M10.7304 4.49127C10.7304 5.94849 9.51865 7.14916 7.99967 7.14916C6.4807 7.14916 5.26891 5.94849 5.26891 4.49127C5.26891 3.03405 6.4807 1.83337 7.99967 1.83337C9.51865 1.83337 10.7304 3.03405 10.7304 4.49127ZM6.92295 8.85092C6.92308 8.85092 6.92321 8.85092 6.92334 8.85092H9.07601C9.07614 8.85092 9.07627 8.85092 9.0764 8.85092C9.89919 8.85198 10.6858 9.17204 11.2642 9.73741C11.8423 10.3025 12.1654 11.0662 12.1663 11.8603V13.965C12.1663 14.0147 12.1462 14.0648 12.1066 14.1036C12.0665 14.1427 12.0098 14.1667 11.9484 14.1667H4.05096C3.98952 14.1667 3.93283 14.1427 3.89279 14.1036C3.85313 14.0648 3.83301 14.0147 3.83301 13.965V11.86C3.83406 11.066 4.15713 10.3024 4.73518 9.73741C5.31359 9.17204 6.10016 8.85198 6.92295 8.85092Z" fill="#9CA3AF" stroke="#9CA3AF"/>
</svg>
