<svg width="24" height="24" viewBox="0 0 24 24" fill="none" xmlns="http://www.w3.org/2000/svg">
<circle cx="12" cy="12" r="12" fill="url(#paint0_linear_19_2483)"/>
<circle cx="11.9998" cy="12" r="10.2" fill="url(#paint1_linear_19_2483)" stroke="#FFF7ED" stroke-width="2"/>
<path d="M9.37627 12.64H13.7596L8.01924 21.12H7.99957L9.37627 12.64Z" fill="#FFF7ED"/>
<path d="M8.10031 7.51998H10.7196L9.17883 14.72H6.55957L8.10031 7.51998Z" fill="#FFF7ED"/>
<path d="M14.3196 4.47998H8.89871L8.07957 6.87998H12.9035C13.7298 6.87998 14.3996 7.5498 14.3996 8.37607C14.3996 9.18966 13.7494 9.85411 12.936 9.8718L10.7196 9.91998L10.3996 12H14.3196C16.3962 12 18.0796 10.3166 18.0796 8.23998C18.0796 6.16339 16.3962 4.47998 14.3196 4.47998Z" fill="#FFF7ED"/>
<path d="M9.59957 7.51998H13.7596L13.1293 9.27998H10.2299L9.59957 7.51998Z" fill="#FFF7ED"/>
<defs>
<linearGradient id="paint0_linear_19_2483" x1="-14.0241" y1="-18.9268" x2="58.6748" y2="35.6346" gradientUnits="userSpaceOnUse">
<stop stop-color="#DB2777"/>
<stop offset="1" stop-color="#F97316"/>
</linearGradient>
<linearGradient id="paint1_linear_19_2483" x1="-12.2894" y1="-16.865" x2="55.5629" y2="34.059" gradientUnits="userSpaceOnUse">
<stop stop-color="#DB2777"/>
<stop offset="1" stop-color="#F97316"/>
</linearGradient>
</defs>
</svg>
